<svg width="16" height="11" viewBox="0 0 16 11" fill="none" xmlns="http://www.w3.org/2000/svg">
<path d="M9.93387 2.06623L9.9339 2.06627L12.5686 4.7001L1.5 4.7001C1.28783 4.7001 1.08434 4.78439 0.934315 4.93442C0.784285 5.08444 0.7 5.28793 0.7 5.5001C0.7 5.71227 0.784286 5.91576 0.934315 6.06579C1.08434 6.21581 1.28783 6.3001 1.5 6.3001L12.5686 6.3001L9.9339 8.93393L9.93387 8.93397C9.78372 9.08412 9.69937 9.28776 9.69937 9.5001C9.69937 9.71244 9.78372 9.91609 9.93387 10.0662C10.084 10.2164 10.2877 10.3007 10.5 10.3007C10.7123 10.3007 10.916 10.2164 11.0661 10.0662L15.0659 6.0665C15.0659 6.06643 15.066 6.06635 15.0661 6.06628C15.0661 6.06626 15.0661 6.06625 15.0661 6.06623C15.1405 5.99197 15.1995 5.90379 15.2398 5.80672C15.2801 5.70952 15.3009 5.60533 15.3009 5.5001C15.3009 5.39487 15.2801 5.29068 15.2398 5.19349C15.1995 5.09641 15.1405 5.00823 15.0661 4.93397C15.0661 4.93396 15.0661 4.93394 15.0661 4.93393C15.066 4.93385 15.0659 4.93378 15.0659 4.9337L11.0661 0.933969C10.916 0.783821 10.7123 0.69947 10.5 0.69947C10.2877 0.69947 10.084 0.783821 9.93387 0.933969C9.78372 1.08412 9.69937 1.28776 9.69937 1.5001C9.69937 1.71244 9.78372 1.91609 9.93387 2.06623Z" fill="black" stroke="black" stroke-width="0.6"/>
</svg>
